<svg width="88" height="99" viewBox="0 0 88 99" fill="none" xmlns="http://www.w3.org/2000/svg">
<path d="M60.7628 53.4628C65.7578 53.4628 70.5481 55.4471 74.08 58.979C77.612 62.5109 79.5962 67.3013 79.5962 72.2962L79.5962 87.3628C79.5962 88.3618 79.1993 89.3199 78.493 90.0263C77.7866 90.7327 76.8285 91.1295 75.8295 91.1295L72.0629 91.1295C71.0639 91.1295 70.1058 91.5264 69.3994 92.2327C68.693 92.9391 68.2962 93.8972 68.2962 94.8962C68.2962 95.8952 68.693 96.8532 69.3994 97.5596C70.1058 98.266 71.0639 98.6628 72.0629 98.6628L75.8295 98.6628C78.8265 98.6628 81.7007 97.4723 83.8198 95.3531C85.939 93.234 87.1295 90.3598 87.1295 87.3628L87.1295 72.2962C87.1247 68.0408 86.087 63.8503 84.1056 60.0843C82.1243 56.3184 79.2584 53.0897 75.7542 50.6755C72.384 47.7101 69.6514 44.0911 67.7219 40.0378C65.7924 35.9846 64.7063 31.5817 64.5295 27.0962C64.5295 20.1033 61.7516 13.3968 56.8069 8.45213C51.8622 3.50742 45.1557 0.729503 38.1628 0.729504C31.17 0.729505 24.4635 3.50742 19.5188 8.45213C14.5741 13.3968 11.7962 20.1033 11.7962 27.0962L11.7962 31.3902C8.2455 32.307 5.15107 34.4872 3.09291 37.5223C1.03476 40.5574 0.154201 44.239 0.616268 47.8769C1.07834 51.5148 2.85134 54.8593 5.60291 57.2835C8.35448 59.7076 11.8957 61.0451 15.5628 61.0451C19.23 61.0451 22.7712 59.7076 25.5228 57.2835C28.2744 54.8593 30.0474 51.5148 30.5094 47.8769C30.9715 44.239 30.0909 40.5574 28.0328 37.5223C25.9746 34.4872 22.8802 32.307 19.3295 31.3902L19.3295 27.0962C19.3295 22.1013 21.3137 17.3109 24.8457 13.779C28.3776 10.2471 33.1679 8.26284 38.1628 8.26284C43.1578 8.26284 47.9481 10.2471 51.48 13.779C55.012 17.3109 56.9962 22.1013 56.9962 27.0962C56.8099 31.5873 55.712 35.9936 53.7694 40.0471C51.8268 44.1007 49.0801 47.7168 45.6962 50.6755C42.2059 53.0981 39.3547 56.3305 37.3867 60.0959C35.4187 63.8613 34.3926 68.0475 34.3962 72.2962L34.3962 87.3628C34.3962 90.3598 35.5867 93.234 37.7059 95.3532C39.825 97.4723 42.6992 98.6628 45.6962 98.6628L49.4629 98.6628C50.4618 98.6628 51.4199 98.266 52.1263 97.5596C52.8327 96.8532 53.2295 95.8952 53.2295 94.8962C53.2295 93.8972 52.8327 92.9391 52.1263 92.2327C51.4199 91.5264 50.4618 91.1295 49.4629 91.1295L45.6962 91.1295C44.6972 91.1295 43.7391 90.7327 43.0328 90.0263C42.3264 89.3199 41.9295 88.3618 41.9295 87.3628L41.9295 72.2962C41.9295 69.8229 42.4167 67.3739 43.3631 65.089C44.3096 62.804 45.6968 60.7278 47.4457 58.979C49.1945 57.2302 51.2707 55.8429 53.5556 54.8964C55.8406 53.95 58.2896 53.4628 60.7628 53.4628ZM15.5628 38.3962C17.5608 38.3962 19.4769 39.1899 20.8897 40.6026C22.3025 42.0154 23.0962 43.9315 23.0962 45.9295C23.0962 47.9275 22.3025 49.8436 20.8897 51.2564C19.4769 52.6692 17.5608 53.4628 15.5628 53.4628C13.5649 53.4628 11.6488 52.6692 10.236 51.2564C8.82321 49.8436 8.02952 47.9275 8.02952 45.9295C8.02952 43.9315 8.82321 42.0154 10.236 40.6026C11.6488 39.1899 13.5649 38.3962 15.5628 38.3962Z" fill="white"/>
</svg>
