<svg width="60" height="113" viewBox="0 0 60 113" fill="none" xmlns="http://www.w3.org/2000/svg">
<path d="M12.3004 91.6309L6.39807 103.432C5.66177 103.219 4.91408 102.96 4.15033 102.793C3.45019 102.641 2.67445 102.384 2.03061 102.551C1.35554 102.727 0.438877 103.254 0.28796 103.811C0.131526 104.387 0.693131 105.228 1.08474 105.864C1.28713 106.193 1.79682 106.337 2.17624 106.548C5.08978 108.173 7.98621 109.831 10.931 111.397C11.9571 111.921 13.0371 112.331 14.1516 112.618C15.3453 112.945 16.299 112.39 16.8845 111.352C17.455 110.34 17.1038 109.35 16.4463 108.514C15.8966 107.914 15.3066 107.354 14.6803 106.836L19.8338 95.3088C21.4749 96.1388 22.8631 96.7501 24.1622 97.5161C26.9398 99.1522 29.7246 97.8862 30.9318 95.2481C36.9725 82.0513 43.2196 68.9494 49.3232 55.781C50.3207 53.6058 51.13 51.3476 51.7433 49.0319C52.4654 46.3335 51.7753 45.1898 49.2208 44.0702C48.0997 43.5782 46.9572 43.14 45.6782 42.6159C46.2116 40.6681 46.8437 38.817 47.1957 36.9129C47.4242 35.6758 47.2362 34.3611 47.2528 33.0813C47.2169 32.6047 47.2546 32.1256 47.3657 31.6612C50.4733 22.7316 54.3976 14.1587 58.5974 5.70713C59.0231 4.86564 59.3918 3.99572 59.7005 3.10351C60.1547 1.75356 59.8825 0.795069 59.0463 0.420857C58.2108 0.0464687 57.2248 0.472609 56.625 1.67756C53.4884 7.97677 50.3349 14.2696 47.3035 20.6203C45.7124 23.9521 44.3604 27.4004 42.8024 31.0236C40.8554 31.1328 39.9611 32.6323 39.3424 34.5661C38.7965 36.2725 37.9876 37.8936 37.2547 39.6493C35.9774 39.2211 34.8945 38.8487 33.8036 38.4938C31.1294 37.6212 29.9877 38.0196 28.6753 40.5623C27.0782 43.6563 25.565 46.7959 24.0904 49.9512C18.9609 60.9309 13.8476 71.9182 8.75077 82.9134C8.35289 83.7686 7.88405 84.5897 7.47648 85.4401C6.47386 87.5325 6.75568 88.5972 8.74961 89.8008C9.85353 90.4708 11.0489 90.995 12.3004 91.6309ZM48.3804 48.2456C44.5398 57.9982 39.6042 67.1527 35.3355 76.5433C29.5006 74.4385 23.8877 72.4139 18.0971 70.3257L31.5066 41.4541L48.3804 48.2456ZM16.1704 74.5817L32.7766 82.0267L26.7445 93.7623C21.3335 91.558 16.1943 89.466 10.8024 87.2707L16.1704 74.5817ZM39.9909 40.5554C41.6283 36.5011 42.2177 35.5565 43.7843 34.8106L41.7471 41.1675L39.9909 40.5554ZM13.4777 99.721L13.0681 99.5001C13.9202 97.6647 14.7529 95.8184 15.6502 94.0064C15.7568 93.7914 16.2256 93.7584 16.5898 93.6158C15.4884 95.7742 14.4834 97.7479 13.4777 99.721Z" fill="white"/>
</svg>
